<svg width="1024" height="1024" viewBox="0 0 100 100" xmlns="http://www.w3.org/2000/svg">
  <!-- Lotus petals -->
  <ellipse cx="35" cy="25" rx="12" ry="20" fill="#FCD34D" transform="rotate(-25 35 25)"/>
  <ellipse cx="65" cy="25" rx="12" ry="20" fill="#FCD34D" transform="rotate(25 65 25)"/>
  <ellipse cx="18" cy="50" rx="12" ry="18" fill="#FDE68A" transform="rotate(-60 18 50)"/>
  <ellipse cx="82" cy="50" rx="12" ry="18" fill="#FDE68A" transform="rotate(60 82 50)"/>
  <ellipse cx="28" cy="70" rx="11" ry="18" fill="#FEF3C7" transform="rotate(-40 28 70)"/>
  <ellipse cx="42" cy="78" rx="11" ry="16" fill="#FEF3C7" transform="rotate(-15 42 78)"/>
  <ellipse cx="58" cy="78" rx="11" ry="16" fill="#FEF3C7" transform="rotate(15 58 78)"/>
  <ellipse cx="72" cy="70" rx="11" ry="18" fill="#FEF3C7" transform="rotate(40 72 70)"/>
  <!-- Center circle -->
  <circle cx="50" cy="50" r="10" fill="#FBBF24" stroke="#F59E0B" stroke-width="2"/>
</svg>