<svg xmlns="http://www.w3.org/2000/svg" version="1.1" xmlns:xlink="http://www.w3.org/1999/xlink" xmlns:svgjs="http://svgjs.dev/svgjs" width="2000" height="671" viewBox="0 0 2000 671"><g transform="matrix(1,0,0,1,-1.2121212121212466,-1.3657016735386946)"><svg viewBox="0 0 396 133" data-background-color="#ffffff" preserveAspectRatio="xMidYMid meet" height="671" width="2000" xmlns="http://www.w3.org/2000/svg" xmlns:xlink="http://www.w3.org/1999/xlink"><g id="tight-bounds" transform="matrix(1,0,0,1,0.2400000000000091,0.2706979472140745)"><svg viewBox="0 0 395.52 132.45860410557185" height="132.45860410557185" width="395.52"><g><svg viewBox="0 0 395.52 132.45860410557185" height="132.45860410557185" width="395.52"><g><svg viewBox="0 0 395.52 132.45860410557185" height="132.45860410557185" width="395.52"><g id="textblocktransform"><svg viewBox="0 0 395.52 132.45860410557185" height="132.45860410557185" width="395.52" id="textblock"><g><svg viewBox="0 0 395.52 132.45860410557185" height="132.45860410557185" width="395.52"><g transform="matrix(1,0,0,1,0,0)"><svg width="395.52" viewBox="-4.1 -28.1 85.24 28.550000000000004" height="132.45860410557185" data-palette-color="#919591"><g class="wordmark-text-0" data-fill-palette-color="primary" id="text-0"><path d="M6-15.15L6-15.15 9.9-15.15Q8.8-14.6 7.1-13.15 5.4-11.7 3.55-9.88 1.7-8.05 0.08-6.2-1.55-4.35-2.58-2.88-3.6-1.4-3.6-0.8L-3.6-0.8Q-3.6 0.15-2.8 0.15L-2.8 0.15Q-1.85 0.15 0-1.07 1.85-2.3 4.2-4.45 6.55-6.6 8.9-9.25L8.9-9.25 9.45-9.25Q5.1-4.65 1.88-2.1-1.35 0.45-2.85 0.45L-2.85 0.45Q-3.45 0.45-3.78 0.05-4.1-0.35-4.1-1L-4.1-1Q-4.1-2.3-3.18-4.03-2.25-5.75-0.05-8.4 2.15-11.05 6-15.15ZM5.6 0.45L5.6 0.45Q4.15 0.45 4.15-1.05L4.15-1.05Q4.15-2.95 6.55-6.28 8.95-9.6 14.25-15.15L14.25-15.15 18.15-15.15Q17.5-14.8 16.57-14.13 15.65-13.45 14.5-12.3L14.5-12.3Q11-8.8 8.9-6.55 6.8-4.3 5.85-2.98 4.9-1.65 4.9-0.85L4.9-0.85Q4.9 0.15 5.65 0.15L5.65 0.15Q6.55 0.15 8.2-0.95 9.85-2.05 11.88-3.85 13.9-5.65 15.85-7.8L15.85-7.8 16.45-8.45 16.95-8.45 16.5-7.95Q14.35-5.5 12.23-3.6 10.1-1.7 8.35-0.63 6.6 0.45 5.6 0.45ZM23.75-8.45L23.25-7.95Q21.4-5.8 19.78-4.55 18.15-3.3 16.95-3.3L16.95-3.3Q15.3-3.3 15.3-5.6L15.3-5.6Q15.3-6.75 16.15-8.38 17-10 18.45-11.78 19.9-13.55 21.7-15.15L21.7-15.15 24.7-15.15Q22.3-13.2 20.35-11.15 18.4-9.1 17.23-7.43 16.05-5.75 16.05-4.8L16.05-4.8Q16.05-3.65 17.05-3.65L17.05-3.65Q18.05-3.65 19.48-4.78 20.9-5.9 22.6-7.8L22.6-7.8 23.2-8.45 23.75-8.45ZM24.35-9.15L23.7-8.45 23.2-8.45 23.8-9.1Q28.4-14.15 31.22-17.4 34.05-20.65 34.95-21.95L34.95-21.95 37.1-21.95Q35.1-20.45 32.12-17.48 29.15-14.5 24.35-9.15L24.35-9.15ZM25 0.15L25 0.15Q26.05 0.15 27.9-0.98 29.75-2.1 31.9-3.9 34.05-5.7 35.95-7.8L35.95-7.8 36.55-8.45 37.05-8.45 36.6-7.95Q34.55-5.6 32.27-3.7 30-1.8 28.07-0.68 26.15 0.45 24.95 0.45L24.95 0.45Q24.3 0.45 23.65 0.03 23-0.4 23-1.35L23-1.35Q23-2.65 24-4.08 25-5.5 26.5-7 28-8.5 29.5-9.9 31-11.3 32-12.48 33-13.65 33-14.5L33-14.5Q33-15.4 31.9-15.4L31.9-15.4Q31.4-15.4 30.75-15.23 30.1-15.05 29.3-14.75L29.3-14.75 29.7-15.3Q30.35-15.55 30.97-15.75 31.6-15.95 32.3-15.95L32.3-15.95Q33.55-15.95 34.32-15.45 35.1-14.95 35.1-13.8L35.1-13.8Q35.1-12.4 33.97-11 32.85-9.6 31.17-8.25 29.5-6.9 27.82-5.63 26.15-4.35 25.02-3.15 23.9-1.95 23.9-0.85L23.9-0.85Q23.9 0.15 25 0.15ZM33.9 0.45L33.9 0.45Q33.3 0.45 32.87 0.03 32.45-0.4 32.45-1.05L32.45-1.05Q32.45-2.95 34.84-6.28 37.25-9.6 42.55-15.15L42.55-15.15 46.45-15.15Q45.8-14.8 44.87-14.08 43.95-13.35 42.8-12.3L42.8-12.3Q39.25-8.85 37.12-6.6 35-4.35 34.07-3 33.15-1.65 33.15-0.85L33.15-0.85Q33.15 0.15 33.95 0.15L33.95 0.15Q34.84 0.15 36.52-0.93 38.2-2 40.22-3.83 42.25-5.65 44.15-7.8L44.15-7.8 44.75-8.45 45.25-8.45 44.8-7.95Q42.65-5.5 40.52-3.6 38.4-1.7 36.65-0.63 34.9 0.45 33.9 0.45ZM54.9-27.6L54.9-27.6Q55.45-27.6 55.45-27.2L55.45-27.2Q55.45-26.55 54.62-25.65 53.8-24.75 52.75-24.08 51.7-23.4 50.9-23.4L50.9-23.4Q50.4-23.4 50.4-23.8L50.4-23.8Q50.4-24.4 51.22-25.3 52.05-26.2 53.12-26.9 54.2-27.6 54.9-27.6ZM73.09-19.65L47.34-19.65 47.34-20.1 73.09-20.1 73.09-19.65ZM47.59-9.25L47.59-9.25Q44.69-6 43.49-4.13 42.29-2.25 42.29-1L42.29-1Q42.29 0.15 43.19 0.15L43.19 0.15Q44.14 0.15 45.34-0.6 46.54-1.35 48.32-3.08 50.09-4.8 52.79-7.8L52.79-7.8 53.39-8.45 53.89-8.45 53.44-7.95Q49.39-3.35 47.02-1.45 44.64 0.45 43.04 0.45L43.04 0.45Q41.29 0.45 41.29-1.5L41.29-1.5Q41.29-4.55 44.74-8.45L44.74-8.45Q45.74-9.65 46.64-10.73 47.54-11.8 48.69-13.08 49.84-14.35 51.54-16.18 53.24-18 55.84-20.75 58.44-23.5 62.24-27.5L62.24-27.5Q63.09-27.5 64.19-27.65 65.29-27.8 66.39-28.1L66.39-28.1Q64.79-26.95 61.84-24.13 58.89-21.3 55.19-17.45 51.49-13.6 47.59-9.25ZM53.89 0.15L53.89 0.15Q55.54 0.15 57.74-0.9 59.94-1.95 62.29-3.75 64.64-5.55 66.64-7.8L66.64-7.8 67.24-8.45 67.74-8.45 67.29-7.95Q65.19-5.6 62.72-3.68 60.24-1.75 57.92-0.65 55.59 0.45 53.89 0.45L53.89 0.45Q52.59 0.45 51.82-0.48 51.04-1.4 51.04-3L51.04-3Q51.04-4.6 51.99-6.35 52.94-8.1 54.52-9.78 56.09-11.45 58.07-12.8 60.04-14.15 62.12-14.95 64.19-15.75 66.09-15.75L66.09-15.75Q66.94-15.75 67.44-15.4 67.94-15.05 67.94-14.5L67.94-14.5Q67.94-13.45 66.77-12.3 65.59-11.15 63.74-10.15 61.89-9.15 59.79-8.5 57.69-7.85 55.79-7.85L55.79-7.85 56.24-8.3Q58.04-8.4 59.97-9 61.89-9.6 63.54-10.55 65.19-11.5 66.24-12.55 67.29-13.6 67.29-14.5L67.29-14.5Q67.29-15.3 66.24-15.3L66.24-15.3Q65.04-15.3 63.27-14.25 61.49-13.2 59.59-11.55 57.69-9.9 56.04-7.98 54.39-6.05 53.37-4.28 52.34-2.5 52.34-1.25L52.34-1.25Q52.34 0.15 53.89 0.15ZM68.39-9.15L67.74-8.45 67.24-8.45 67.84-9.1Q72.44-14.15 75.26-17.4 78.09-20.65 78.99-21.95L78.99-21.95 81.14-21.95Q79.14-20.45 76.16-17.48 73.19-14.5 68.39-9.15L68.39-9.15ZM69.04 0.15L69.04 0.15Q70.09 0.15 71.94-0.98 73.79-2.1 75.94-3.9 78.09-5.7 79.99-7.8L79.99-7.8 80.59-8.45 81.09-8.45 80.64-7.95Q78.59-5.6 76.31-3.7 74.04-1.8 72.11-0.68 70.19 0.45 68.99 0.45L68.99 0.45Q68.34 0.45 67.69 0.03 67.04-0.4 67.04-1.35L67.04-1.35Q67.04-2.65 68.04-4.08 69.04-5.5 70.54-7 72.04-8.5 73.54-9.9 75.04-11.3 76.04-12.48 77.04-13.65 77.04-14.5L77.04-14.5Q77.04-15.4 75.94-15.4L75.94-15.4Q75.44-15.4 74.79-15.23 74.14-15.05 73.34-14.75L73.34-14.75 73.74-15.3Q74.39-15.55 75.01-15.75 75.64-15.95 76.34-15.95L76.34-15.95Q77.59-15.95 78.36-15.45 79.14-14.95 79.14-13.8L79.14-13.8Q79.14-12.4 78.01-11 76.89-9.6 75.21-8.25 73.54-6.9 71.86-5.63 70.19-4.35 69.06-3.15 67.94-1.95 67.94-0.85L67.94-0.85Q67.94 0.15 69.04 0.15Z" fill="#919591" data-fill-palette-color="primary"></path></g></svg></g></svg></g></svg></g></svg></g></svg></g><defs></defs></svg><rect width="395.52" height="132.45860410557185" fill="none" stroke="none" visibility="hidden"></rect></g></svg></g></svg>