<?xml version="1.0" encoding="UTF-8" standalone="no"?>
<!-- Created with Inkscape (http://www.inkscape.org/) -->

<svg
   xmlns:dc="http://purl.org/dc/elements/1.1/"
   xmlns:cc="http://creativecommons.org/ns#"
   xmlns:rdf="http://www.w3.org/1999/02/22-rdf-syntax-ns#"
   xmlns:svg="http://www.w3.org/2000/svg"
   xmlns="http://www.w3.org/2000/svg"
   xmlns:xlink="http://www.w3.org/1999/xlink"
   xmlns:sodipodi="http://sodipodi.sourceforge.net/DTD/sodipodi-0.dtd"
   xmlns:inkscape="http://www.inkscape.org/namespaces/inkscape"
   width="960mm"
   height="1400mm"
   viewBox="0 0 960 1400"
   version="1.1"
   id="svg8"
   inkscape:version="0.92.4 (5da689c313, 2019-01-14)"
   sodipodi:docname="Landscape-02.svg">
  <defs
     id="defs2">
    <linearGradient
       inkscape:collect="always"
       id="linearGradient839">
      <stop
         style="stop-color:#6988da;stop-opacity:1"
         offset="0"
         id="stop835" />
      <stop
         style="stop-color:#e8eeff;stop-opacity:1"
         offset="1"
         id="stop837" />
    </linearGradient>
    <linearGradient
       inkscape:collect="always"
       xlink:href="#linearGradient839"
       id="linearGradient841"
       x1="476.80884"
       y1="-1103"
       x2="476.80884"
       y2="-68.446747"
       gradientUnits="userSpaceOnUse" />
  </defs>
  <sodipodi:namedview
     id="base"
     pagecolor="#ffffff"
     bordercolor="#666666"
     borderopacity="1.0"
     inkscape:pageopacity="0.0"
     inkscape:pageshadow="2"
     inkscape:zoom="0.087500002"
     inkscape:cx="999.41745"
     inkscape:cy="2665.1494"
     inkscape:document-units="mm"
     inkscape:current-layer="layer1"
     showgrid="false"
     inkscape:showpageshadow="false"
     borderlayer="true"
     inkscape:pagecheckerboard="true"
     inkscape:snap-page="true"
     inkscape:object-nodes="false"
     inkscape:snap-object-midpoints="false"
     inkscape:window-width="1600"
     inkscape:window-height="837"
     inkscape:window-x="-8"
     inkscape:window-y="-8"
     inkscape:window-maximized="1" />
  <metadata
     id="metadata5">
    <rdf:RDF>
      <cc:Work
         rdf:about="">
        <dc:format>image/svg+xml</dc:format>
        <dc:type
           rdf:resource="http://purl.org/dc/dcmitype/StillImage" />
        <dc:title />
      </cc:Work>
    </rdf:RDF>
  </metadata>
  <g
     inkscape:label="Layer 1"
     inkscape:groupmode="layer"
     id="layer1"
     transform="translate(0,1103)">
    <rect
       style="opacity:1;fill:url(#linearGradient841);fill-opacity:1;fill-rule:evenodd;stroke:none;stroke-width:5.29200029;stroke-linecap:square;stroke-linejoin:round;stroke-miterlimit:4;stroke-dasharray:none;stroke-dashoffset:8.12598419;stroke-opacity:1;paint-order:normal"
       id="rect833"
       width="960"
       height="1399.9999"
       x="0"
       y="-1103" />
    <path
       sodipodi:nodetypes="csssscccc"
       inkscape:connector-curvature="0"
       id="path1381"
       d="m 0,-73.970174 c 0,0 27.796032,-12.82892 141.11831,-10.69077 113.32229,2.13815 101.93097,34.247341 202.05576,23.519696 89.80255,-9.621691 22.786,5.647892 189.22682,-16.03617 117.62975,-15.32491 159.32478,-9.621689 296.13464,18.174361 C 918.09138,-40.80775 960,-56.864914 960,-56.864914 V 227.50986 H 0 Z"
       style="opacity:1;fill:#dce2f8;fill-opacity:1;fill-rule:evenodd;stroke:none;stroke-width:5.29200029;stroke-linecap:square;stroke-linejoin:round;stroke-miterlimit:4;stroke-dasharray:none;stroke-dashoffset:8.12598419;stroke-opacity:1;paint-order:normal" />
    <path
       style="opacity:1;fill:#cbccef;fill-opacity:1;fill-rule:evenodd;stroke:none;stroke-width:5.29200029;stroke-linecap:square;stroke-linejoin:round;stroke-miterlimit:4;stroke-dasharray:none;stroke-dashoffset:8.12598419;stroke-opacity:1;paint-order:normal"
       d="m 0,-60.072162 c 0,0 59.868374,12.82895 173.19065,14.9671 113.32229,2.13815 85.52625,-17.10525 186.01959,-10.6908 100.49333,6.41448 98.18659,-21.65982 265.13137,-4.27631 119.7679,12.47112 91.97285,-38.4868 228.78271,-10.69075 C 942.68017,-52.567612 960,-42.966902 960,-42.966902 V 241.40787 H 0 Z"
       id="path831"
       inkscape:connector-curvature="0"
       sodipodi:nodetypes="csssscccc" />
    <path
       inkscape:connector-curvature="0"
       id="path829"
       d="m 0,-8.7564117 c 0,0 36.348655,-21.3815503 149.67093,-19.2434003 113.32229,2.13815 136.842,19.2434103 237.33534,25.6578603 100.49333,6.41448 63.91026,-7.36227 149.67094,-25.6578703 160.36171,-34.2105 196.7425,12.82895 286.51292,29.9342103 C 912.96056,19.039618 960,8.3488483 960,8.3488483 V 296.99988 L 0,297 Z"
       style="opacity:1;fill:#a2a0ed;fill-opacity:1;fill-rule:evenodd;stroke:none;stroke-width:5.29200029;stroke-linecap:square;stroke-linejoin:round;stroke-miterlimit:4;stroke-dasharray:none;stroke-dashoffset:8.12598419;stroke-opacity:1;paint-order:normal"
       sodipodi:nodetypes="csssscccc" />
    <path
       style="opacity:1;fill:#8c8be5;fill-opacity:1;fill-rule:evenodd;stroke:none;stroke-width:5.29200029;stroke-linecap:square;stroke-linejoin:round;stroke-miterlimit:4;stroke-dasharray:none;stroke-dashoffset:8.12598419;stroke-opacity:1;paint-order:normal"
       d="m 0,46.835648 c 0,0 53.453905,-12.82893 166.77618,-10.69078 113.32229,2.13815 138.98016,-38.4867997 239.4735,-32.0723497 100.49333,6.4144797 153.94723,29.9341997 241.61165,27.7960297 87.6644,-2.13815 132.59782,12.82895 222.36824,29.93421 C 960,78.90799 960,63.940907 960,63.940907 V 297 H 0 Z"
       id="path827"
       inkscape:connector-curvature="0"
       sodipodi:nodetypes="csssscccc" />
    <path
       inkscape:connector-curvature="0"
       id="path825"
       d="m 0,98.151397 c 0,0 38.486811,2.138163 151.80909,4.276313 113.32229,2.13815 102.6315,-27.796022 203.12484,-21.381569 C 455.42726,87.46062 566.61138,106.70403 654.2758,104.56586 741.9402,102.42771 778.32099,68.217215 868.09141,85.322475 957.86184,102.42771 960,115.25666 960,115.25666 V 297 H 0 Z"
       style="opacity:1;fill:#7170dd;fill-opacity:1;fill-rule:evenodd;stroke:none;stroke-width:5.29200029;stroke-linecap:square;stroke-linejoin:round;stroke-miterlimit:4;stroke-dasharray:none;stroke-dashoffset:8.12598419;stroke-opacity:1;paint-order:normal"
       sodipodi:nodetypes="csssscccc" />
    <path
       style="opacity:1;fill:#5554d9;fill-opacity:1;fill-rule:evenodd;stroke:none;stroke-width:5.29200029;stroke-linecap:square;stroke-linejoin:round;stroke-miterlimit:4;stroke-dasharray:none;stroke-dashoffset:8.12598419;stroke-opacity:1;paint-order:normal"
       d="m 0,158.01977 c 0,0 53.453905,-23.51971 166.77618,-21.38156 113.32229,2.13815 87.66441,38.48682 188.15775,44.90127 100.49333,6.41448 205.26298,-70.55913 292.9274,-72.69731 87.6644,-2.13815 132.59782,47.03945 222.36824,64.14471 C 960,190.09211 960,175.12503 960,175.12503 V 296.99988 L 0,297 Z"
       id="path815"
       inkscape:connector-curvature="0"
       sodipodi:nodetypes="csssscccc" />
  </g>
</svg>
